<svg width="354" height="354" viewBox="0 0 354 354" fill="none" xmlns="http://www.w3.org/2000/svg">
<g clip-path="url(#clip0_1673_30)">
<path d="M5.5845 91.2923L91.2924 177V91.2923H5.5845Z" stroke="#0C1452" stroke-width="10.7135" stroke-miterlimit="10" stroke-linecap="round" stroke-linejoin="round"/>
<path d="M177 91.2923L262.708 177V91.2923H177Z" stroke="#0C1452" stroke-width="10.7135" stroke-miterlimit="10" stroke-linecap="round" stroke-linejoin="round"/>
<path d="M91.2923 262.708L177 348.416V262.708H91.2923Z" stroke="#0C1452" stroke-width="10.7135" stroke-miterlimit="10" stroke-linecap="round" stroke-linejoin="round"/>
<path d="M262.708 348.416L177 262.708V348.416H262.708Z" stroke="#0C1452" stroke-width="10.7135" stroke-miterlimit="10" stroke-linecap="round" stroke-linejoin="round"/>
<path d="M262.708 177L177 91.2923V177H262.708Z" stroke="#0C1452" stroke-width="10.7135" stroke-miterlimit="10" stroke-linecap="round" stroke-linejoin="round"/>
<path d="M262.708 262.708L177 177V262.708H262.708Z" stroke="#0C1452" stroke-width="10.7135" stroke-miterlimit="10" stroke-linecap="round" stroke-linejoin="round"/>
<path d="M177 177L262.708 262.708V177H177Z" stroke="#0C1452" stroke-width="10.7135" stroke-miterlimit="10" stroke-linecap="round" stroke-linejoin="round"/>
<path d="M177 262.708L262.708 348.416V262.708H177Z" stroke="#0C1452" stroke-width="10.7135" stroke-miterlimit="10" stroke-linecap="round" stroke-linejoin="round"/>
<path d="M348.416 177L262.708 91.2923V177H348.416Z" stroke="#0C1452" stroke-width="10.7135" stroke-miterlimit="10" stroke-linecap="round" stroke-linejoin="round"/>
<path d="M348.416 91.2924L262.708 5.58447V91.2924H348.416Z" stroke="#0C1452" stroke-width="10.7135" stroke-miterlimit="10" stroke-linecap="round" stroke-linejoin="round"/>
<path d="M262.708 91.2923L348.416 177V91.2923H262.708Z" stroke="#0C1452" stroke-width="10.7135" stroke-miterlimit="10" stroke-linecap="round" stroke-linejoin="round"/>
</g>
<defs>
<clipPath id="clip0_1673_30">
<rect width="353.545" height="353.545" fill="white" transform="translate(0.227539 0.227417)"/>
</clipPath>
</defs>
</svg>
